<?xml version="1.0" encoding="utf-8"?>
<!DOCTYPE svg PUBLIC "-//W3C//DTD SVG 1.1//EN" "http://www.w3.org/Graphics/SVG/1.1/DTD/svg11.dtd">
<svg version="1.1" xmlns="http://www.w3.org/2000/svg" xmlns:xlink="http://www.w3.org/1999/xlink" x="0px" y="0px" width="612px" height="792px" viewBox="0 0 612 792" enable-background="new 0 0 612 792" xml:space="preserve">
	<g>
		<g id="wi-base-map">
			<path fill="none" stroke="#A6A6A6" stroke-width="0.5" stroke-linecap="square" stroke-miterlimit="3.8635" d="M508.456,641.272
				c0.702,0.732-0.988,4.443,3.109,7.176c1.435,0.957-1.435,3.35-0.479,7.654c0.602,2.701-1.005,2.42-2.393,7.178h-33.969v8.133
				h-13.396v-30.62h46.409L508.456,641.272z"/>
			<path fill="none" stroke="#A6A6A6" stroke-width="0.5" stroke-linecap="square" stroke-miterlimit="3.8635" d="M500.628,594.346
				c1.295,2.132,2.138,3.236,0.891,4.823c-5.264,6.698,4.814,10.018,0.956,13.876c-7.176,7.176,1.675,4.543,2.873,12.439
				c1.005,6.637-2.873,9.807,2.391,15.309h-25.835v-46.407L500.628,594.346z"/>
			<path fill="none" stroke="#A6A6A6" stroke-width="0.5" stroke-linecap="square" stroke-miterlimit="3.8635" d="M507.738,549.412
				c1.914,3.349-4.306,5.263-2.391,9.09c0.956,1.913-7.656,8.612-7.178,12.917c0.478,4.306-1.86,7.079-0.957,13.396
				c0.684,4.791,1.691,7.626,2.871,9.57h-18.181v-22.01h2.391v-24.4h23.444V549.412z"/>
			<path fill="none" stroke="#A6A6A6" stroke-width="0.5" stroke-linecap="square" stroke-miterlimit="3.8635" d="M506.781,547.976
				h-33.49v-47.843h36.84c-0.956,1.436-0.479,10.526,2.393,11.961s-1.437,8.61,1.435,12.919c2.871,4.304-11.862,14.524-6.22,24.399
				L506.781,547.976z"/>
			<path fill="none" stroke="#A6A6A6" stroke-width="0.5" stroke-linecap="square" stroke-miterlimit="3.8635" d="M526.397,443.677
				h-21.05v-46.409l0.477-0.956h34.449c-0.453,1.106-0.722,2.155-1.437,2.87c-7.654,7.656-4.057,11.232-6.698,13.875
				c-2.87,2.871-0.956,9.091-2.391,13.396c-1.437,4.307,0.477,5.741-2.395,13.396c-0.554,1.48-0.681,2.747-0.543,3.895
				L526.397,443.677z"/>
			<path fill="none" stroke="#A6A6A6" stroke-width="0.5" stroke-linecap="square" stroke-miterlimit="3.8635" d="M483.003,396.479
				c-1.122,0.954-3.422,1.067-1.578,4.139c2.869,4.784,3.827,5.741,3.827,8.612c0,0.478-6.598-10.962-5.741-2.392
				c0.478,4.783-3.307,5.191,2.393,8.611c9.568,5.741,7.078-11.486,15.31-12.918c4.265-0.742,6.431-2.279,8.135-5.264v46.409h-5.264
				v10.525h-35.405v-46.408h-4.784v-13.396h1.915v1.914L483.003,396.479z"/>
			<path fill="none" stroke="#A6A6A6" stroke-width="0.5" stroke-linecap="square" stroke-miterlimit="3.8635" d="M483.003,396.479
				c0.624-0.532,0.885-1.325-0.144-3.038c-2.871-4.784,6.22-5.263,6.22-12.917c0-7.655,8.612-4.306,6.698-14.832
				c-0.52-2.863-1.913-5.741,3.828-6.22c4.225-0.352,3.545-1.205,5.742-1.914v-3.349h-17.703v-5.742h-16.267v-10.047h-8.612v-11.483
				h-12.439V304.93h-34.447v21.052h4.784v13.396h16.268v34.926h19.136v20.094h5.743v1.914h19.615L483.003,396.479z"/>
			<path fill="none" stroke="#A6A6A6" stroke-width="0.5" stroke-linecap="square" stroke-miterlimit="3.8635" d="M474.249,247.039
				v11.483h-35.406v46.408h11.483v22.008h12.439v11.483h8.612v10.047h16.267v5.742h17.703v3.349
				c0.786-0.255,1.931-0.957,3.827-0.957c7.176,0,7.176-7.655,7.654-12.917c0.478-5.263-5.742-10.526-9.568-14.353
				c-3.828-3.828,0-7.655,0.478-10.526c0.479-2.87,2.393-10.526,1.914-14.832c-0.478-4.305-4.785-5.262-6.22,0.479
				c-1.436,5.741-6.697-1.436-9.09,1.914c-2.393,3.35-7.654-0.478-4.308-3.827c3.35-3.349-0.478-6.22,1.915-8.133
				c13.162-10.529-5.742-13.875,4.305-19.138c5.526-2.894-2.391-8.133-0.956-11.004c2.304-4.609-1.914-5.741-5.264-11.004
				c-3.347-5.263-8.132,0.479-12.438-5.263C476.24,246.188,475.163,246.707,474.249,247.039z"/>
			<path fill="none" stroke="#A6A6A6" stroke-width="0.5" stroke-linecap="square" stroke-miterlimit="3.8635" d="M415.399,223.117
				v35.405h23.443v46.408h-44.974v-11.482h-12.916l-0.479-69.852h9.091v-11.004l9.09,4.306c0,0,2.871,0,3.829,1.914
				c0.956,1.914,9.089-0.958,11.481,2.871L415.399,223.117z"/>
			<path fill="none" stroke="#A6A6A6" stroke-width="0.5" stroke-linecap="square" stroke-miterlimit="3.8635" d="M389.6,212.047
				l-17.737-9.503c0,0-47.486-12.074-72.722-18.658v43.06h-10.526v9.09h66.503v6.22h10.525v-5.742h14.831v-12.917h9.091v-11.004
				L389.6,212.047z"/>
			<path fill="none" stroke="#A6A6A6" stroke-width="0.5" stroke-linecap="square" stroke-miterlimit="3.8635" d="M242.206,146.088
				c1.6,0.61,3.917,0.894,6.22,1.436c8.133,1.914,6.699,6.698,11.482,4.784c4.784-1.914,0.957,1.914,4.784,1.914
				c3.828,0,10.526,6.22,11.961,11.005c1.435,4.784,0.957,7.654,3.349,9.568c2.393,1.914-2.871,2.871,3.828,4.785
				c0.122,0.035,6.247,1.941,15.31,4.306v43.06h-33.969v-24.879h-12.439v-10.526h-10.526V146.088z"/>
			<path fill="none" stroke="#A6A6A6" stroke-width="0.5" stroke-linecap="square" stroke-miterlimit="3.8635" d="M204.888,145.61
				v81.335h60.283v-24.879h-12.439v-10.526h-10.526v-45.93c-9.945-3.791-7.58-8.567-14.831-12.917
				c-9.569-5.742,0.957,6.698-5.263,5.262c-3.296-0.76-6.698,5.742-11.482,6.699C208.779,145.024,205.5,145.961,204.888,145.61z"/>
			<path fill="none" stroke="#A6A6A6" stroke-width="0.5" stroke-linecap="square" stroke-miterlimit="3.8635" d="M207.031,144.614
				c-0.972-0.555-0.631-1.842,0.249-3.31c1.436-2.392,0.479-5.263,3.35-6.698c2.871-1.436,3.828-2.87,1.914-6.698
				c-1.914-3.827,5.742-13.875,7.655-18.181s0.478-5.263-3.828-9.569c-7.176-7.177-2.392,2.393-10.047-0.957
				c-4.405-1.926-10.047,4.306-11.482,6.699c-1.436,2.392-5.742,0.957-8.134,2.871c-3.846,3.077-4.784-1.436-4.784-1.436
				s-4.306,1.914-10.047,5.742c-5.741,3.827-7.176,9.09-9.569,6.22c-2.392-2.872-5.741,6.22-13.396,4.784
				c-1.151-0.216-2.06,0.415-2.871,0.479v79.42h58.848v-58.37L207.031,144.614z"/>
			<path fill="none" stroke="#A6A6A6" stroke-width="0.5" stroke-linecap="square" stroke-miterlimit="3.8635" d="M145.99,123.875
				c-4.581,0.355-4.438,4.399-7.605,3.555c-7.177-1.914-7.655,6.219-19.138,5.263c-8.12-0.677-7.176-1.436-10.047-4.306
				c-2.871-2.87-6.22-1.914-6.22-1.914s3.349,0.957,4.306,3.349c0.957,2.393-1.914,2.393-5.263-0.478
				c-3.349-2.871-6.106-5.732-6.698,0.478c-0.957,10.047-2.392-3.349-5.742,6.22c-1.709,4.884-10.047-1.435-10.047-1.435v69.374
				h66.502v-79.42L145.99,123.875z"/>
			<polygon fill="none" stroke="#A6A6A6" stroke-width="0.5" stroke-linecap="square" stroke-miterlimit="3.8635" points="
				459.895,407.794 459.895,394.397 456.066,394.397 456.066,374.304 409.18,374.304 409.18,364.734 386.215,364.734 
				386.215,352.295 366.121,352.295 366.121,399.66 425.447,399.66 425.447,407.794 			"/>
			<polygon fill="none" stroke="#A6A6A6" stroke-width="0.5" stroke-linecap="square" stroke-miterlimit="3.8635" points="
				436.931,374.304 436.931,339.378 386.215,339.378 386.215,364.734 409.18,364.734 409.18,374.304 			"/>
			<polygon fill="none" stroke="#A6A6A6" stroke-width="0.5" stroke-linecap="square" stroke-miterlimit="3.8635" points="
				420.663,339.378 420.663,325.981 415.879,325.981 415.879,304.93 393.869,304.93 393.869,293.448 346.506,293.448 
				346.506,339.855 365.643,339.855 365.643,352.295 386.215,352.295 386.215,339.378 			"/>
			<polygon fill="none" stroke="#A6A6A6" stroke-width="0.5" stroke-linecap="square" stroke-miterlimit="3.8635" points="
				380.953,293.448 380.474,236.513 365.643,236.513 365.643,242.255 355.117,242.255 355.117,236.035 288.614,236.035 
				288.614,280.052 346.506,280.052 346.506,293.448 			"/>
			<g>
				
					<rect x="288.614" y="280.052" fill="none" stroke="#A6A6A6" stroke-width="0.5" stroke-linecap="square" stroke-miterlimit="3.8635" width="58.369" height="59.804"/>
				<path fill="none" stroke="#A6A6A6" stroke-width="0.5" stroke-linecap="square" stroke-miterlimit="3.8635" d="M317.799,309.954"/>
			</g>
			<polygon fill="none" stroke="#A6A6A6" stroke-width="0.5" stroke-linecap="square" stroke-miterlimit="3.8635" points="
				366.121,399.66 366.121,339.855 274.261,339.855 274.261,353.252 266.127,353.252 266.127,399.66 			"/>
			<g>
				
					<rect x="231.202" y="226.945" fill="none" stroke="#A6A6A6" stroke-width="0.5" stroke-linecap="square" stroke-miterlimit="3.8635" width="57.413" height="81.333"/>
				<path fill="none" stroke="#A6A6A6" stroke-width="0.5" stroke-linecap="square" stroke-miterlimit="3.8635" d="M259.908,267.612"/>
			</g>
			<polygon fill="none" stroke="#A6A6A6" stroke-width="0.5" stroke-linecap="square" stroke-miterlimit="3.8635" points="
				288.614,339.855 288.614,308.279 206.323,308.279 206.323,353.252 274.261,353.252 274.261,339.855 			"/>
			<polygon fill="none" stroke="#A6A6A6" stroke-width="0.5" stroke-linecap="square" stroke-miterlimit="3.8635" points="
				231.202,226.945 231.202,273.353 145.562,273.353 145.562,203.98 204.888,203.98 204.888,226.945 			"/>
			<polygon fill="none" stroke="#A6A6A6" stroke-width="0.5" stroke-linecap="square" stroke-miterlimit="3.8635" points="
				231.202,308.279 231.202,273.353 145.562,273.353 145.562,321.197 206.323,321.197 206.323,308.279 			"/>
			<polygon fill="none" stroke="#A6A6A6" stroke-width="0.5" stroke-linecap="square" stroke-miterlimit="3.8635" points="
				266.127,353.252 206.323,353.252 206.323,421.669 217.327,421.669 217.327,432.194 266.127,432.194 			"/>
			<polygon fill="none" stroke="#A6A6A6" stroke-width="0.5" stroke-linecap="square" stroke-miterlimit="3.8635" points="
				206.323,321.197 145.562,321.197 145.562,330.288 135.515,330.288 135.515,338.421 136.95,338.421 136.95,376.695 
				206.323,376.695 			"/>
			<g>
				
					<rect x="136.95" y="376.695" fill="none" stroke="#A6A6A6" stroke-width="0.5" stroke-linecap="square" stroke-miterlimit="3.8635" width="69.373" height="34.448"/>
				<path fill="none" stroke="#A6A6A6" stroke-width="0.5" stroke-linecap="square" stroke-miterlimit="3.8635" d="M171.636,393.92"
					/>
			</g>
			<polygon fill="none" stroke="#A6A6A6" stroke-width="0.5" stroke-linecap="square" stroke-miterlimit="3.8635" points="
				145.562,273.353 145.562,273.353 145.562,330.288 90.541,330.288 90.541,273.353 99.63,273.353 			"/>
			<polygon fill="none" stroke="#A6A6A6" stroke-width="0.5" stroke-linecap="square" stroke-miterlimit="3.8635" points="
				136.95,398.703 136.95,338.421 135.515,338.421 135.515,330.288 90.541,330.288 90.541,340.812 91.977,340.812 91.977,398.703 "/>
			<polygon fill="none" stroke="#A6A6A6" stroke-width="0.5" stroke-linecap="square" stroke-miterlimit="3.8635" points="
				145.562,203.98 97.239,203.98 97.239,225.987 99.632,225.987 99.632,273.353 145.562,273.353 			"/>
			<path fill="none" stroke="#A6A6A6" stroke-width="0.5" stroke-linecap="square" stroke-miterlimit="3.8635" d="M266.127,467.359
				v-35.165h-48.8v-10.525h-11.004v-10.525h-25.357v45.451h3.827v24.639h16.746v-7.176c0,0,1.914-0.239,2.393-2.153
				c0.535-2.14,3.827-0.958,4.306-4.545H266.127z"/>
			<path fill="none" stroke="#A6A6A6" stroke-width="0.5" stroke-linecap="square" stroke-miterlimit="3.8635" d="M266.127,525.968
				h-58.608v-44.734h-5.98v-7.176c0,0,1.914-0.239,2.393-2.153c0.535-2.14,3.827-0.958,4.306-4.545h57.89V525.968z"/>
			<polygon fill="none" stroke="#A6A6A6" stroke-width="0.5" stroke-linecap="square" stroke-miterlimit="3.8635" points="
				266.127,399.66 309.665,399.66 309.665,422.626 321.148,422.626 321.148,454.202 266.127,454.202 			"/>
			<polygon fill="none" stroke="#A6A6A6" stroke-width="0.5" stroke-linecap="square" stroke-miterlimit="3.8635" points="
				309.665,399.66 366.121,399.66 366.121,454.202 321.148,454.202 321.148,422.626 309.665,422.626 			"/>
			<polygon fill="none" stroke="#A6A6A6" stroke-width="0.5" stroke-linecap="square" stroke-miterlimit="3.8635" points="
				331.674,536.016 331.674,492.478 375.211,492.478 375.211,503.481 370.427,503.481 370.427,513.528 372.819,513.528 
				372.819,519.749 368.034,519.749 368.034,536.016 			"/>
			<polygon fill="none" stroke="#A6A6A6" stroke-width="0.5" stroke-linecap="square" stroke-miterlimit="3.8635" points="
				366.121,454.202 366.121,399.66 425.447,399.66 425.447,407.794 414.443,407.794 414.443,454.202 			"/>
			<g>
				
					<rect x="331.674" y="454.202" fill="none" stroke="#A6A6A6" stroke-width="0.5" stroke-linecap="square" stroke-miterlimit="3.8635" width="67.938" height="38.275"/>
				<path fill="none" stroke="#A6A6A6" stroke-width="0.5" stroke-linecap="square" stroke-miterlimit="3.8635" d="M365.643,473.341"/>
			</g>
			<g>
				
					<rect x="414.443" y="407.794" fill="none" stroke="#A6A6A6" stroke-width="0.5" stroke-linecap="square" stroke-miterlimit="3.8635" width="50.235" height="46.408"/>
				<path fill="none" stroke="#A6A6A6" stroke-width="0.5" stroke-linecap="square" stroke-miterlimit="3.8635" d="M439.562,430.998"/>
			</g>
			<g>
				
					<rect x="399.612" y="454.202" fill="none" stroke="#A6A6A6" stroke-width="0.5" stroke-linecap="square" stroke-miterlimit="3.8635" width="48.322" height="48.322"/>
				<path fill="none" stroke="#A6A6A6" stroke-width="0.5" stroke-linecap="square" stroke-miterlimit="3.8635" d="M423.773,478.364"/>
			</g>
			<polygon fill="none" stroke="#A6A6A6" stroke-width="0.5" stroke-linecap="square" stroke-miterlimit="3.8635" points="
				482.382,500.133 482.382,454.202 447.935,454.202 447.935,495.825 472.812,495.825 472.812,500.133 			"/>
			<polygon fill="none" stroke="#A6A6A6" stroke-width="0.5" stroke-linecap="square" stroke-miterlimit="3.8635" points="
				473.291,547.976 473.291,495.825 447.935,495.825 447.935,502.524 399.612,502.524 399.612,536.973 446.978,536.973 
				446.978,547.976 			"/>
			<polygon fill="none" stroke="#A6A6A6" stroke-width="0.5" stroke-linecap="square" stroke-miterlimit="3.8635" points="
				399.612,536.973 399.612,492.478 375.211,492.478 375.211,503.481 370.427,503.481 370.427,513.528 372.819,513.528 
				372.819,519.749 368.034,519.749 368.034,536.016 376.646,536.016 376.646,536.973 			"/>
			<g>
				
					<rect x="437.887" y="594.386" fill="none" stroke="#A6A6A6" stroke-width="0.5" stroke-linecap="square" stroke-miterlimit="3.8635" width="44.017" height="46.407"/>
				<path fill="none" stroke="#A6A6A6" stroke-width="0.5" stroke-linecap="square" stroke-miterlimit="3.8635" d="M459.895,617.588"/>
			</g>
			<polygon fill="none" stroke="#A6A6A6" stroke-width="0.5" stroke-linecap="square" stroke-miterlimit="3.8635" points="
				481.903,594.386 481.903,572.376 484.294,572.376 484.294,547.976 447.455,547.976 447.455,571.898 445.063,571.898 
				445.063,594.386 			"/>
			<polygon fill="none" stroke="#A6A6A6" stroke-width="0.5" stroke-linecap="square" stroke-miterlimit="3.8635" points="
				445.063,594.386 445.063,571.898 447.455,571.898 447.455,536.973 391,536.973 391,594.386 			"/>
			<g>
				
					<rect x="391" y="594.386" fill="none" stroke="#A6A6A6" stroke-width="0.5" stroke-linecap="square" stroke-miterlimit="3.8635" width="46.887" height="46.407"/>
				<path fill="none" stroke="#A6A6A6" stroke-width="0.5" stroke-linecap="square" stroke-miterlimit="3.8635" d="M414.443,617.588"/>
			</g>
			<g>
				
					<rect x="416.835" y="640.793" fill="none" stroke="#A6A6A6" stroke-width="0.5" stroke-linecap="square" stroke-miterlimit="3.8635" width="44.494" height="46.887"/>
				<path fill="none" stroke="#A6A6A6" stroke-width="0.5" stroke-linecap="square" stroke-miterlimit="3.8635" d="M439.083,664.237"/>
			</g>
			<path fill="none" stroke="#A6A6A6" stroke-width="0.5" stroke-linecap="square" stroke-miterlimit="3.8635" d="M331.674,573.334
				c0,0-1.914,0.479-3.828,0.479c-1.913,0-4.306,2.87-5.262,4.783c-0.957,1.914-0.479,2.393-0.479,2.393h33.969v2.87H391v-46.886
				h-13.875v-0.957h-64.589c0,0,0.957,4.784,5.98,6.22c0.92,0.263,0.239,2.869,5.023,4.306c4.784,1.435,9.091,1.674,8.134,1.674
				V573.334z"/>
			<path fill="none" stroke="#A6A6A6" stroke-width="0.5" stroke-linecap="square" stroke-miterlimit="3.8635" d="M266.127,547.737
				v-12.204h46.409c0,0,0.957,5.267,5.98,6.702c0.92,0.263,0.239,2.869,5.023,4.306c4.784,1.435,9.091,1.674,8.134,1.674v25.119
				c0,0-1.914,0.479-3.828,0.479c-1.913,0-4.306,2.87-5.262,4.783c-0.957,1.914-0.479,2.393-0.479,2.393s0.239,4.306-1.435,5.981
				c-1.676,1.673-2.393,3.349-4.785,3.825c-2.392,0.479-3.627,2.269-4.784,4.067c-2.153,3.351-8.133,1.676-10.286,2.632
				c-2.153,0.957-8.334-0.394-9.09,2.631c-0.479,1.915-3.827,2.153-6.459,1.437c-2.631-0.718-6.094-1.083-7.177,0
				c-0.239,0.238,0-53.824,0-53.824H266.127z"/>
			<path fill="none" stroke="#A6A6A6" stroke-width="0.5" stroke-linecap="square" stroke-miterlimit="3.8635" d="M357.987,638.4
				v2.393H391v-56.935h-34.927v-2.87h-33.969c0,0,0.239,4.306-1.435,5.981c-1.676,1.673-2.393,3.349-4.785,3.825l-1.195,0.479V638.4
				H357.987z"/>
			<path fill="none" stroke="#A6A6A6" stroke-width="0.5" stroke-linecap="square" stroke-miterlimit="3.8635" d="M314.689,647.013
				v-55.738c-1.555,0.359-2.432,1.789-3.589,3.588c-2.153,3.351-8.133,1.676-10.286,2.632c-2.153,0.957-8.334-0.394-9.09,2.631
				c-0.479,1.915-3.827,2.153-6.459,1.437c-2.631-0.718-6.094-1.083-7.177,0c0,0-2.631-0.239-4.545-2.632
				c-1.914-2.392-2.763,0.043-7.176-3.109c-1.675-1.196-5.98-0.479-7.177,0.478c-1.196,0.957-3.349,0.48-3.349,0.48v50.234H314.689z
				"/>
			<path fill="none" stroke="#A6A6A6" stroke-width="0.5" stroke-linecap="square" stroke-miterlimit="3.8635" d="M278.088,601.562
				c0,0-2.631-0.239-4.545-2.632c-1.914-2.392-2.763,0.043-7.176-3.109c-1.675-1.196-5.98-0.479-7.177,0.478
				c-1.196,0.957-3.349,0.48-3.349,0.48"/>
			<path fill="none" stroke="#A6A6A6" stroke-width="0.5" stroke-linecap="square" stroke-miterlimit="3.8635" d="M278.088,601.562
				c0,0-2.631-0.239-4.545-2.632c-1.914-2.392-2.763,0.043-7.176-3.109c-1.675-1.196-5.98-0.479-7.177,0.478
				c-1.196,0.957-3.349,0.48-3.349,0.48s-6.208-0.809-9.33-1.198c-3.827-0.478-5.818-0.124-10.526,2.871
				c-2.631,1.674-3.11,0.958-5.501,1.196v-51.91h47.604V601.562z"/>
			<g>
				
					<rect x="357.987" y="640.793" fill="none" stroke="#A6A6A6" stroke-width="0.5" stroke-linecap="square" stroke-miterlimit="3.8635" width="58.848" height="46.887"/>
				<path fill="none" stroke="#A6A6A6" stroke-width="0.5" stroke-linecap="square" stroke-miterlimit="3.8635" d="M387.411,664.237
					"/>
			</g>
			<g>
				
					<rect x="314.689" y="638.4" fill="none" stroke="#A6A6A6" stroke-width="0.5" stroke-linecap="square" stroke-miterlimit="3.8635" width="43.298" height="49.279"/>
				<path fill="none" stroke="#A6A6A6" stroke-width="0.5" stroke-linecap="square" stroke-miterlimit="3.8635" d="M336.338,663.04"
					/>
			</g>
			<g>
				
					<rect x="255.841" y="647.013" fill="none" stroke="#A6A6A6" stroke-width="0.5" stroke-linecap="square" stroke-miterlimit="3.8635" width="58.848" height="40.667"/>
				<path fill="none" stroke="#A6A6A6" stroke-width="0.5" stroke-linecap="square" stroke-miterlimit="3.8635" d="M285.265,667.348
					"/>
			</g>
			<path fill="none" stroke="#A6A6A6" stroke-width="0.5" stroke-linecap="square" stroke-miterlimit="3.8635" d="M184.793,625.484
				c-2.906,10.655,5.263,11.481,5.742,16.265c1.289,12.89,2.392,7.178,3.349,12.439c0.957,5.264,7.176,5.743,9.568,8.134
				c5.165,5.164,7.655,1.435,11.483,2.393c3.827,0.956,8.133,2.393,12.917,4.785c4.785,2.391,2.392,8.133,4.785,10.047
				c2.392,1.913,0.717,8.133,0.717,8.133h22.487v-90.901c0,0-6.208-0.809-9.33-1.198c-3.827-0.478-5.818-0.124-10.526,2.871
				c-2.631,1.674-3.11,0.958-5.501,1.196c0,0-3.35,1.435-5.263,4.307c-1.914,2.871-4.155,2.234-7.416,5.262
				c-3.348,3.109-4.545,2.871-6.698,3.349c-2.153,0.48-5.263,0.719-7.176,2.871s-7.895,7.178-10.526,7.654
				c-2.631,0.479-8.133,0.958-8.133,0.958L184.793,625.484z"/>
			<path fill="none" stroke="#A6A6A6" stroke-width="0.5" stroke-linecap="square" stroke-miterlimit="3.8635" d="M179.77,564.243
				h50.715v35.404c0,0-3.35,1.435-5.263,4.307c-1.914,2.871-4.155,2.234-7.416,5.262c-3.348,3.109-4.545,2.871-6.698,3.349
				c-2.153,0.48-5.263,0.719-7.176,2.871s-7.895,7.178-10.526,7.654c-2.631,0.479-8.133,0.958-8.133,0.958
				c1.435-5.264-4.341-6.152-0.957-12.917c1.914-3.829-8.188-2.072,7.177-21.053c8.133-10.046-2.21-11.208-10.047-22.964
				L179.77,564.243z"/>
			<path fill="none" stroke="#A6A6A6" stroke-width="0.5" stroke-linecap="square" stroke-miterlimit="3.8635" d="M181.444,567.114
				c-10.525-15.79,3.513-11.229-6.22-18.181c-3.349-2.393,4.306-6.222,1.435-13.397s0.957-8.611,2.871-9.568h86.597v21.529h-35.404
				v16.746h-50.715L181.444,567.114z"/>
			<path fill="none" stroke="#A6A6A6" stroke-width="0.5" stroke-linecap="square" stroke-miterlimit="3.8635" d="M158.479,489.129
				h10.047v-2.154c0,0-1.196-3.589,0.479-4.065c1.674-0.479,0.239-2.393,1.914-2.393c1.674,0,1.435-2.152,3.109-0.238
				c1.674,1.913,2.631,1.435,3.35,0.238c0.717-1.196,3.109-3.587,4.544-1.914c1.436,1.676,2.871,0.958,2.871,0.958v1.673h22.726
				v44.734h-28.707c1.914-0.955,0.094-3.755-3.588-1.913c-0.957,0.479-1.436-12.439,0.957-17.702
				c2.393-5.264-9.569-6.698-11.482-11.483c-1.202-3.004-3.913-3.555-6.593-5.091L158.479,489.129z"/>
			<path fill="none" stroke="#A6A6A6" stroke-width="0.5" stroke-linecap="square" stroke-miterlimit="3.8635" d="M146.997,480.517
				c-0.478,6.698,3.349-1.437,6.699,4.783c1.246,2.314,3.196,2.919,4.784,3.829h10.047v-2.154c0,0-1.196-3.589,0.479-4.065
				c1.674-0.479,0.239-2.393,1.914-2.393c1.674,0,1.435-2.152,3.109-0.238c1.674,1.913,2.631,1.435,3.35,0.238
				c0.717-1.196,3.109-3.587,4.544-1.914c1.436,1.676,2.871,0.958,2.871,0.958v-22.966h-3.827v-45.451H148.91v46.409
				c-1.674,1.435-1.283,1.086-4.784,2.152c-5.502,1.674-0.239,3.349-3.588,5.262c-1.33,0.761-0.718,2.872,0.239,3.827
				c0.957,0.958,4.297,0.65,3.589,4.547c-0.479,2.631,2.392,2.631,2.392,2.631c-1.914,0.958-1.196,4.066-1.196,4.066
				L146.997,480.517z"/>
			<path fill="none" stroke="#A6A6A6" stroke-width="0.5" stroke-linecap="square" stroke-miterlimit="3.8635" d="M145.562,480.038
				c0,0-0.718-3.108,1.196-4.066c0,0-2.871,0-2.392-2.631c0.708-3.896-2.632-3.589-3.589-4.547
				c-0.957-0.955-1.569-3.066-0.239-3.827c3.349-1.913-1.914-3.588,3.588-5.262c3.501-1.066,3.11-0.718,4.784-2.152v-46.409
				c0,0-47.846-0.044-48.322,0c-5.262,0.478-3.827,6.22-4.305,11.482c-0.479,5.262-1.245,6.124-1.914,6.219
				c-3.35,0.479-2.872,3.828-2.872,3.828c1.619,1.043,2.388,1.438,4.306,0.479c3.828-1.914,3.828,8.133,9.09,6.22
				c5.263-1.914,8.612,6.698,11.482,19.138c2.871,12.438,5.742,8.612,10.526,9.09c15.767,1.576-3.827-1.914,7.655,9.091
				C146.04,487.692,146.04,473.341,145.562,480.038z"/>
			<path fill="none" stroke="#A6A6A6" stroke-width="0.5" stroke-linecap="square" stroke-miterlimit="3.8635" d="M74.56,418.404
				c2.123,4.703,3.121,11.081,9.762,11.398c3.108,0.147,5.565,1.832,7.176,2.87c0,0-0.478-3.35,2.872-3.828
				c0.669-0.095,1.435-0.957,1.914-6.219c0.478-5.263-0.957-11.005,4.305-11.482c0.477-0.044,36.362,0,36.362,0v-12.44H91.977
				v19.616H75.231L74.56,418.404z"/>
			<path fill="none" stroke="#A6A6A6" stroke-width="0.5" stroke-linecap="square" stroke-miterlimit="3.8635" d="M74.56,418.404
				c-1.089-2.411-2.475-4.383-5.069-4.869c-7.656-1.436-17.703,1.436-25.357-12.439c-7.655-13.875-19.779-5.148-11.961-18.181
				c1.344-2.239,1.721-4.356,1.436-6.22h58.369v41.624L74.56,418.404z"/>
			<path fill="none" stroke="#A6A6A6" stroke-width="0.5" stroke-linecap="square" stroke-miterlimit="3.8635" d="M35.521,330.288
				h55.02v10.525h1.436v35.883H33.607c-0.63-4.109-3.459-7.14,0.957-8.611c1.436-0.479,0.622-16.636-1.436-17.225
				c-6.698-1.914,3.828-2.392,2.871-12.917c-0.235-2.59-0.529-5.182-0.759-7.63L35.521,330.288z"/>
			<path fill="none" stroke="#A6A6A6" stroke-width="0.5" stroke-linecap="square" stroke-miterlimit="3.8635" d="M35.521,330.288
				h55.02V259H54.658v10.526H23.082c-2.871,12.439,5.752,12.345,10.047,12.917c7.177,0.957,1.436,4.785,9.091,10.047
				c5.304,3.647,5.262,9.569,0.957,13.397c-4.306,3.828,0.478,9.09-4.785,10.047C34.424,316.656,34.815,322.79,35.521,330.288z"/>
			<path fill="none" stroke="#A6A6A6" stroke-width="0.5" stroke-linecap="square" stroke-miterlimit="3.8635" d="M23.082,269.526
				c3.445-14.925,10.526-14.354,12.439-22.965c1.914-8.611,13.396-17.702,19.137-15.31c5.742,2.392,0-4.306,5.263-4.306
				c5.263,0,3.828-8.134,10.526-5.742c6.698,2.393,3.349-8.611,9.09-8.611v-8.612h17.702v22.007h2.393v47.366h-9.091V259H54.658
				v10.526H23.082z"/>
			<path fill="none" stroke="#A6A6A6" stroke-width="0.5" stroke-linecap="square" stroke-miterlimit="3.8635" d="M415.399,223.596
				v34.926h58.85v-11.961c-1.993,0.723-3.421,4.057-6.7,1.436c-7.924-6.34,6.22-4.784-1.435-16.267
				c-6.33-9.497-8.134-1.914-12.439-5.263c-4.305-3.349-5.263,2.393-9.09-0.957c-7.707-6.742-4.306,2.393-10.047-2.392
				c-13.16-10.967-18.181,2.392-20.573-1.435L415.399,223.596z"/>
			<path fill="none" stroke="#A6A6A6" stroke-width="0.5" stroke-linecap="square" stroke-miterlimit="3.8635" d="M505.824,396.312
				h34.927c1.514-3.717,1.834-9.19,4.784-14.354c2.385-4.174-1.913-4.784,0-4.306c1.912,0.479,4.307-0.478,4.307-4.306
				c0-3.828,9.089-3.828,7.176-6.22c-2.409-3.012,2.393-1.914,0.957-7.655c-2.346-9.387,2.87-5.262,3.349-9.568
				c1.331-11.973,4.784-4.785,5.741-5.742c2.576-2.577-1.914-6.698,0.956-8.611c2.871-1.914-1.913-5.742,0.958-5.742
				s2.393-1.914,1.913-7.177c-0.478-5.263,2.393-0.957,2.871-2.392c4.602-13.804-1.437-8.133-5.264-9.568
				c-3.827-1.436-2.392,7.655-3.827,6.22c-3.659-3.66-1.913,7.655-4.785,8.611c-2.869,0.958-3.825,7.177-4.783,3.828
				c-2.469-8.644-6.698,15.788-8.612,15.788c-4.409,0-6.218,8.133-9.567,14.832c-3.351,6.698,3.35,7.654,1.435,8.133
				c-3.993,0.998,5.264,8.611,4.306,8.133c-3.682-1.841-6.22-5.263-7.654-8.133c-1.437-2.871-2.871-4.785-4.306,0.957
				c-1.436,5.741-2.4-1.616-5.264,2.392c-4.784,6.698-2.87-6.219-13.396,9.569C509.115,385.397,508.514,391.595,505.824,396.312z"/>
			<path fill="none" stroke="#A6A6A6" stroke-width="0.5" stroke-linecap="square" stroke-miterlimit="3.8635" d="M510.131,500.133
				h-27.749v-45.931h17.702v-10.525h25.835c0.575,4.788,6.622,7.592,4.306,15.311c-2.871,9.568-3.827,11.482-8.133,11.959
				c-4.307,0.48-2.871,7.178-6.22,10.049c-3.349,2.87-0.478,7.654-2.872,11.005c-2.391,3.349,0.262,4.153-3.348,9.568
				L510.131,500.133z"/>
			<path fill="none" stroke="#A6A6A6" stroke-width="0.5" stroke-linecap="square" stroke-miterlimit="3.8635" d="M508.535,663.23
				c-0.532,1.827-1.01,4.399-1.274,8.183c-0.943,13.44,5.739,11.482,1.914,16.267h-47.846v-16.267h13.396v-8.133L508.535,663.23z"/>
			<path fill="none" stroke="#A6A6A6" stroke-width="0.5" stroke-linecap="square" stroke-miterlimit="3.8635" d="M232.637,687.68
				c0,0,2.392-6.22,0-8.133c-2.393-1.914,0-7.656-4.785-10.047c-4.784-2.393-9.09-3.829-12.917-4.785
				c-3.828-0.958-6.318,2.771-11.483-2.393c-2.393-2.391-8.611-2.87-9.568-8.134c-0.958-5.262-2.06,0.45-3.349-12.439
				c-0.479-4.783-8.647-5.609-5.742-16.265c1.436-5.264-3.862-7.589-0.478-14.354c1.914-3.829-8.188-2.072,7.177-21.053
				c8.133-10.046-2.21-11.208-10.047-22.964c-10.525-15.79,3.513-11.229-6.22-18.181c-3.349-2.393,4.306-6.222,1.435-13.397
				s0-8.133,1.915-9.089c1.913-0.958,0.332-4.234-3.35-2.393c-0.957,0.479-1.436-12.439,0.957-17.702
				c2.393-5.264-9.569-6.698-11.482-11.483c-1.914-4.784-7.656-3.35-11.004-9.569c-3.35-6.22-7.177,1.915-6.699-4.783
				c0.479-6.698-0.957,7.176-12.439-3.827c-11.482-11.005,8.112-7.515-7.655-9.091c-4.784-0.478-7.655,3.348-10.526-9.09
				c-2.87-12.439-6.22-21.052-11.482-19.138c-5.262,1.913-5.262-8.134-9.09-6.22c-3.827,1.913-5.251-3.052-11.482-3.349
				c-10.047-0.479-7.177-14.832-14.831-16.268c-7.656-1.436-17.703,1.436-25.357-12.439c-7.655-13.875-19.779-5.148-11.961-18.181
				c4.306-7.177-4.027-12.691,2.393-14.831c1.436-0.479,0.622-16.636-1.436-17.225c-6.698-1.914,3.828-2.392,2.871-12.917
				c-0.958-10.525-2.871-21.051,2.392-22.007c5.263-0.957,0.479-6.22,4.785-10.047c4.305-3.828,4.347-9.75-0.957-13.397
				c-7.655-5.262-1.914-9.09-9.091-10.047c-4.294-0.572-12.917-0.478-10.047-12.917c3.445-14.925,10.526-14.354,12.439-22.965
				c1.914-8.611,13.396-17.702,19.137-15.31c5.742,2.392,0-4.306,5.263-4.306c5.263,0,3.828-8.134,10.526-5.742
				c6.698,2.393,3.349-8.611,9.09-8.611v-77.985c0,0,8.337,6.319,10.047,1.435c3.35-9.568,4.785,3.827,5.742-6.22
				c0.591-6.21,3.349-3.349,6.698-0.478c3.35,2.871,6.22,2.871,5.263,0.478c-0.957-2.392-4.306-3.349-4.306-3.349
				s3.349-0.957,6.22,1.914c2.871,2.871,1.927,3.629,10.047,4.306c11.483,0.956,11.961-7.176,19.138-5.263
				c3.727,0.994,2.871-4.785,10.525-3.349c7.655,1.436,11.005-7.656,13.396-4.784c2.393,2.87,3.828-2.393,9.569-6.22
				c5.741-3.828,10.047-5.742,10.047-5.742s0.938,4.513,4.784,1.436c2.393-1.914,6.699-0.479,8.134-2.871
				c1.435-2.393,7.077-8.625,11.482-6.699c7.655,3.35,2.871-6.22,10.047,0.957c4.306,4.306,5.742,5.263,3.828,9.569
				s-9.569,14.354-7.655,18.181c1.915,3.828,0.957,5.263-1.914,6.698c-2.871,1.435-1.914,4.306-3.35,6.698
				c-1.435,2.393-1.435,4.306,3.35,3.35c4.784-0.957,8.186-7.459,11.482-6.699c6.22,1.436-4.306-11.004,5.263-5.262
				c8.418,5.05,4.428,10.92,21.051,14.831c8.133,1.914,6.699,6.698,11.482,4.784c4.784-1.914,0.957,1.914,4.784,1.914
				c3.828,0,10.526,6.22,11.961,11.005c1.435,4.784,0.957,7.654,3.349,9.568c2.393,1.914-2.871,2.871,3.828,4.785
				c0.459,0.131,88.032,22.964,88.032,22.964l26.792,14.354c0,0,2.871,0,3.829,1.914c0.956,1.914,9.089-0.958,11.481,2.871
				c2.393,3.827,7.413-9.532,20.573,1.435c5.741,4.785,2.34-4.35,10.047,2.392c3.827,3.35,4.785-2.392,9.09,0.957
				c4.306,3.349,6.109-4.233,12.439,5.263c7.654,11.482-6.489,9.927,1.435,16.267c4.785,3.827,5.742-5.741,10.049,0
				c4.306,5.742,9.091,0,12.438,5.263c3.35,5.263,7.567,6.395,5.264,11.004c-1.435,2.871,6.482,8.11,0.956,11.004
				c-10.047,5.263,8.857,8.609-4.305,19.138c-2.393,1.914,1.435,4.784-1.915,8.133c-3.347,3.349,1.915,7.177,4.308,3.827
				c2.393-3.349,7.654,3.827,9.09-1.914c1.435-5.741,5.742-4.784,6.22-0.479c0.479,4.306-1.436,11.962-1.914,14.832
				c-0.478,2.871-4.306,6.698-0.478,10.526c3.826,3.827,10.046,9.09,9.568,14.353c-0.479,5.262-0.479,12.917-7.654,12.917
				c-7.178,0-3.827,2.393-9.569,2.871c-5.741,0.479-4.348,3.357-3.828,6.22c1.914,10.526-6.698,7.177-6.698,14.832
				c0,7.654-9.091,8.133-6.22,12.917c2.871,4.784-4.306,2.393-1.435,7.176c2.869,4.784,3.827,5.741,3.827,8.612
				c0,0.478-6.598-10.962-5.741-2.392c0.478,4.783-3.307,5.191,2.393,8.611c9.568,5.741,7.078-11.486,15.31-12.918
				c11.004-1.914,10.048-14.354,14.832-21.53c10.525-15.788,8.611-2.871,13.396-9.569c2.863-4.008,3.828,3.349,5.264-2.392
				c1.435-5.742,2.869-3.827,4.306-0.957c1.435,2.871,3.973,6.292,7.654,8.133c0.958,0.478-8.299-7.135-4.306-8.133
				c1.915-0.479-4.785-1.436-1.435-8.133c3.35-6.699,5.158-14.832,9.567-14.832c1.914,0,6.144-24.432,8.612-15.788
				c0.958,3.349,1.914-2.871,4.783-3.828c2.872-0.957,1.126-12.271,4.785-8.611c1.436,1.436,0-7.655,3.827-6.22
				c3.827,1.435,9.865-4.236,5.264,9.568c-0.479,1.436-3.349-2.871-2.871,2.392c0.479,5.263,0.958,7.177-1.913,7.177
				s1.913,3.828-0.958,5.742c-2.87,1.914,1.62,6.035-0.956,8.611c-0.957,0.957-4.41-6.231-5.741,5.742
				c-0.479,4.306-5.694,0.182-3.349,9.568c1.436,5.742-3.366,4.644-0.957,7.655c1.913,2.392-7.176,2.392-7.176,6.22
				c0,3.828-2.395,4.784-4.307,4.306c-1.913-0.478,2.385,0.131,0,4.306c-3.827,6.699-3.579,14.105-6.698,17.224
				c-7.654,7.656-4.057,11.232-6.698,13.875c-2.87,2.871-0.956,9.091-2.391,13.396c-1.437,4.307,0.477,5.741-2.395,13.396
				c-2.869,7.654,5.742,9.568,2.871,19.138c-2.871,9.568-3.827,11.482-8.133,11.959c-4.307,0.48-2.871,7.178-6.22,10.049
				c-3.349,2.87-0.478,7.654-2.872,11.005c-2.391,3.349,0.262,4.153-3.348,9.568c-0.958,1.435,0,9.091,2.871,10.525
				s-1.437,8.61,1.435,12.919c2.871,4.304-11.862,14.524-6.22,24.399c1.914,3.349-4.306,5.263-2.391,9.09
				c0.956,1.913-7.656,8.612-7.178,12.917c0.478,4.306-1.86,7.079-0.957,13.396c1.435,10.047,6.689,11.32,4.306,14.354
				c-5.264,6.698,4.814,10.018,0.956,13.876c-7.176,7.176,1.675,4.543,2.873,12.439c1.005,6.637-2.154,10.285,3.108,15.788
				c0.702,0.732-0.988,4.443,3.109,7.176c1.435,0.957-1.435,3.35-0.479,7.654c0.832,3.737-2.87,1.675-3.826,15.311
				c-0.943,13.44,5.739,11.482,1.914,16.267C508.875,688.053,232.637,687.68,232.637,687.68z"/>
			<path fill="none" stroke="#A6A6A6" stroke-width="0.5" stroke-linecap="square" stroke-miterlimit="3.8635" d="M303.374,454.104
				c0,0,0.957,2.869,0.478,5.262c-0.478,2.393-0.957,3.827-1.435,6.22c-0.479,2.393-1.436,4.785-4.306,5.741
				c-2.87,0.957-4.306,4.306-4.306,6.698s-0.479,8.134,1.436,11.005c1.914,2.87,3.348,5.262,2.87,8.134
				c-0.479,2.869-2.392,6.696-0.479,9.089c1.914,2.393,4.785,5.741,5.263,7.656c0.479,1.914,4.307,3.827,4.784,6.22
				c0.479,2.391,1.913,7.176,2.871,9.09c0.957,1.913,1.435,6.22,1.435,6.22h-45.929v-81.813h37.321L303.374,454.104z"/>
			<path fill="none" stroke="#A6A6A6" stroke-width="0.5" stroke-linecap="square" stroke-miterlimit="3.8635" d="M311.984,535.438
				c0,0-0.478-4.307-1.435-6.22c-0.958-1.914-2.392-6.699-2.871-9.09c-0.478-2.393-4.305-4.306-4.784-6.22
				c-0.478-1.915-3.349-5.264-5.263-7.656c-1.914-2.393,0-6.22,0.479-9.089c0.478-2.872-0.957-5.264-2.87-8.134
				c-1.915-2.871-1.436-8.612-1.436-11.005s1.436-5.741,4.306-6.698c2.871-0.956,3.828-3.349,4.306-5.741
				c0.478-2.393,0.957-3.827,1.435-6.22c0.479-2.393-0.478-5.262-0.478-5.262l0.002-0.479h28.226v82.3h-19.617V535.438z"/>
			<path fill="#FFFFFF" stroke="#A6A6A6" stroke-width="0.5" stroke-linecap="square" stroke-miterlimit="3.8635" d="
				M396.74,468.077c0,0,0.958-0.479,2.152,0c1.196,0.479,2.871,0.479,4.308-0.956c1.436-1.437,2.632-2.631,2.632-2.631
				s-0.239-3.351,1.194-3.111c1.437,0.239,1.915,0.717,1.677,1.675c-0.24,0.956-0.719,2.631,0.477,3.589
				c1.196,0.956,2.393,1.196,3.349,1.196c0.958,0,3.111-0.479,4.067,0.955c0.958,1.436,0,2.633,0,3.589
				c0,0.958-0.238,2.87,1.196,2.87c1.436,0,2.871-0.718,4.067,0c1.195,0.719,2.152,1.437,2.152,2.393
				c0,0.957,2.152,1.435,2.152,1.435s1.436,0,2.631,1.437c1.198,1.437,2.393,2.631,3.589,2.869c1.198,0.24,1.436-0.238,1.915,0.72
				c0.478,0.957,2.152,0.717,1.436-0.958c-0.719-1.675-1.436-5.023-0.239-5.502c1.195-0.478,2.87-0.956,3.348-1.912
				c0.479-0.958,0.957-2.393,0.719-3.351c-0.239-0.956,0.478-2.153,1.673-2.869c1.198-0.72,1.676-2.393,0.958-3.351
				c-0.718-0.956-1.435-2.631,0-3.109c1.435-0.479,1.914-0.479,2.393-1.436s1.435-0.239,1.435-0.239s0,0,1.915,0.717
				c1.912,0.718,2.87,1.198,4.066,1.437s1.913,0.958,2.152,2.152c0.24,1.196,0.719,2.393-0.479,3.589
				c-1.196,1.196-1.914,2.393-1.436,3.35c0.479,0.956-0.479,2.152,0.239,3.11c0.719,0.956-0.239,1.435,0.719,3.109
				c0.956,1.674,0.956,2.63,0.478,3.826c-0.478,1.196-1.914,3.111-0.956,3.828c0.956,0.718-0.958,1.436,0,2.392
				c0.956,0.957,0.956,2.153,1.435,3.829c0.479,1.675,0.719,1.913,0.956,3.587c0.24,1.675-0.237,4.067-1.435,4.306
				c-1.196,0.24-2.392,0.24-3.11,1.914c-0.718,1.675-1.912,3.589-1.912,3.589s-0.24,1.913-1.197,3.109s-1.674,0.956-1.436,2.152
				c0.239,1.198-1.435,1.437-2.869,1.675c-1.436,0.24-2.154-0.477-1.676-1.435c0.479-0.956,0.718-2.152-0.24-3.351
				c-0.955-1.194-0.955-2.391-0.477-3.825c0.477-1.437,0.957-3.589,0-4.307c-0.958-0.719,0.238-3.109-0.719-3.828
				c-0.956-0.718-2.152-0.239-3.826-1.912c-1.675-1.675-2.154-2.873-2.631-4.308c-0.479-1.436-0.479-3.588-1.915-4.785
				c-1.436-1.194-3.11-2.631-4.545-2.152c-1.437,0.479-2.393-1.675-5.023-1.194c-2.633,0.477-3.351-0.72-3.351-1.915
				s-1.673-0.239-2.391-2.393c-0.718-2.152,0.238-2.87-1.435-3.827c-1.677-0.956-4.308-2.872-5.503-1.914
				c-1.196,0.958-2.871,0.24-4.546,1.675c-1.674,1.436-2.152-0.238-4.065,0.956c-1.916,1.198-4.545,0.24-4.307-1.912
				C396.74,470.47,396.74,468.077,396.74,468.077z"/>
			<g>
				<path fill="none" stroke="#A6A6A6" stroke-width="0.5" stroke-linecap="square" stroke-miterlimit="3.8635" d="M589.551,291.533
					c0.479-0.478,1.914,3.35,1.914,3.35S585.693,295.391,589.551,291.533z"/>
				<path fill="none" stroke="#A6A6A6" stroke-width="0.5" stroke-linecap="square" stroke-miterlimit="3.8635" d="M576.395,310.432
					c0,0-1.676-2.153-0.24-2.631c1.436-0.479,2.872,0,2.393,1.435C578.069,310.671,576.395,310.432,576.395,310.432z"/>
				<path fill="none" stroke="#A6A6A6" stroke-width="0.5" stroke-linecap="square" stroke-miterlimit="3.8635" d="M579.504,307.801
					c0,0-0.238-2.153,1.435-1.196c1.676,0.957,3.589,1.436,1.915,3.11C581.179,311.389,579.504,307.801,579.504,307.801z"/>
				<path fill="none" stroke="#A6A6A6" stroke-width="0.5" stroke-linecap="square" stroke-miterlimit="3.8635" d="M542.904,325.024
					c0,0,0.718-3.827-1.915-2.87c-2.631,0.957-1.196,1.674-0.238,2.392C541.708,325.264,542.904,325.024,542.904,325.024z"/>
				<path fill="none" stroke="#A6A6A6" stroke-width="0.5" stroke-linecap="square" stroke-miterlimit="3.8635" d="M540.751,327.656
					c0,0,0-3.11-1.914-2.392c-1.913,0.718-2.152,0.957-0.957,2.392C539.077,329.091,540.751,327.656,540.751,327.656z"/>
				<path fill="none" stroke="#A6A6A6" stroke-width="0.5" stroke-linecap="square" stroke-miterlimit="3.8635" d="M577.59,293.687
					c-1.436,1.196-0.717,3.828-0.479,5.741c0.24,1.914-0.477,3.827,0.479,4.784c0.957,0.957,1.914,0.479,2.393-0.478
					c0.478-0.958,1.914-1.675,2.152-0.239c0.239,1.435,0.719,0.957,2.393,0.239c1.675-0.718,0.24-3.589,1.435-4.306
					c1.196-0.717-0.716-2.632-0.477-3.828c0.238-1.196-1.914-2.392-3.351-1.196c-1.435,1.196-2.631,1.435-2.869,0.478
					C579.026,293.926,579.026,292.49,577.59,293.687z"/>
			</g>
			<g>
				<polygon fill="none" stroke="#A6A6A6" stroke-width="0.5" stroke-linecap="square" stroke-miterlimit="3.8635" points="
					235.437,88.658 232.953,87.416 232.953,87.416 231.709,88.658 231.709,88.658 231.709,92.385 231.709,92.385 234.194,93.627 
					234.194,93.627 236.679,93.627 236.679,93.627 236.679,91.143 236.679,91.143 "/>
				<polygon fill="none" stroke="#A6A6A6" stroke-width="0.5" stroke-linecap="square" stroke-miterlimit="3.8635" points="
					200.655,91.143 203.14,89.9 203.14,89.9 204.381,89.9 204.381,89.9 205.624,92.385 205.624,92.385 205.624,94.869 
					205.624,94.869 204.381,96.111 204.381,96.111 201.897,96.111 201.897,96.111 200.655,94.869 200.655,94.869 200.655,93.627 
					200.655,93.627 200.655,91.143 200.655,91.143 "/>
				<polygon fill="none" stroke="#A6A6A6" stroke-width="0.5" stroke-linecap="square" stroke-miterlimit="3.8635" points="
					219.289,86.173 219.289,91.143 219.289,91.143 220.53,92.385 220.53,92.385 223.015,89.9 223.015,89.9 223.015,87.416 
					223.015,87.416 219.289,84.931 219.289,84.931 "/>
				<polygon fill="none" stroke="#A6A6A6" stroke-width="0.5" stroke-linecap="square" stroke-miterlimit="3.8635" points="
					221.772,96.111 220.53,98.595 220.53,98.595 221.772,101.08 221.772,101.08 223.015,103.564 223.015,103.564 225.499,103.564 
					225.499,103.564 226.741,101.08 226.741,101.08 226.741,98.595 226.741,98.595 225.499,96.111 225.499,96.111 221.772,96.111 
					221.772,96.111 "/>
				<polygon fill="none" stroke="#A6A6A6" stroke-width="0.5" stroke-linecap="square" stroke-miterlimit="3.8635" points="
					244.132,96.111 241.647,94.869 241.647,94.869 239.163,96.111 239.163,96.111 232.953,98.595 232.953,98.595 230.467,99.837 
					230.467,99.837 231.709,103.564 231.709,103.564 237.921,102.322 237.921,102.322 239.163,103.564 239.163,103.564 
					241.647,103.564 241.647,103.564 241.647,99.837 241.647,99.837 244.132,98.595 244.132,98.595 245.375,97.353 245.375,97.353 "/>
				<polygon fill="none" stroke="#A6A6A6" stroke-width="0.5" stroke-linecap="square" stroke-miterlimit="3.8635" points="
					251.585,79.963 250.343,82.447 250.343,82.447 247.858,83.689 247.858,83.689 247.858,86.173 247.858,86.173 246.616,91.143 
					246.616,91.143 249.101,92.385 249.101,92.385 251.585,89.9 251.585,89.9 254.069,87.416 254.069,87.416 254.069,84.931 
					254.069,84.931 255.311,82.447 255.311,82.447 255.311,79.963 255.311,79.963 251.585,79.963 251.585,79.963 "/>
				<polygon fill="none" stroke="#A6A6A6" stroke-width="0.5" stroke-linecap="square" stroke-miterlimit="3.8635" points="
					250.343,102.322 247.858,102.322 247.858,102.322 245.375,104.807 245.375,104.807 244.132,108.533 244.132,108.533 
					246.616,109.775 246.616,109.775 249.101,107.291 249.101,107.291 251.585,102.322 251.585,102.322 "/>
				<polygon fill="none" stroke="#A6A6A6" stroke-width="0.5" stroke-linecap="square" stroke-miterlimit="3.8635" points="
					221.772,107.291 224.257,107.291 224.257,107.291 225.499,109.775 225.499,109.775 225.499,112.259 225.499,112.259 
					221.772,113.501 221.772,113.501 220.53,111.017 220.53,111.017 221.772,108.533 221.772,108.533 "/>
				<polygon fill="none" stroke="#A6A6A6" stroke-width="0.5" stroke-linecap="square" stroke-miterlimit="3.8635" points="
					234.815,108.844 228.604,112.57 228.604,112.57 226.12,113.812 226.12,113.812 224.878,115.054 224.878,115.054 
					222.394,117.539 222.394,117.539 217.425,120.023 217.425,120.023 217.425,122.507 217.425,122.507 219.91,124.992 
					222.394,122.507 222.394,122.507 226.12,121.266 226.12,121.266 229.846,121.266 229.846,121.266 231.089,118.781 
					231.089,118.781 229.846,116.296 229.846,116.296 233.573,113.812 233.573,113.812 236.058,115.054 236.058,115.054 
					238.542,112.57 238.542,112.57 238.542,110.085 238.542,110.085 234.815,108.844 234.815,108.844 "/>
				<polygon fill="none" stroke="#A6A6A6" stroke-width="0.5" stroke-linecap="square" stroke-miterlimit="3.8635" points="
					237.921,83.689 236.679,84.931 236.679,84.931 236.679,88.658 236.679,88.658 237.921,91.143 237.921,91.143 240.405,91.143 
					240.405,91.143 241.647,87.416 241.647,87.416 240.405,84.931 240.405,84.931 239.163,83.689 239.163,83.689 237.921,83.689 
					237.921,83.689 "/>
				<polygon fill="none" stroke="#A6A6A6" stroke-width="0.5" stroke-linecap="square" stroke-miterlimit="3.8635" points="
					229.225,88.658 226.741,88.658 226.741,88.658 225.499,89.9 225.499,89.9 224.257,92.385 224.257,92.385 226.741,93.627 
					226.741,93.627 229.225,93.627 229.225,93.627 230.467,91.143 230.467,91.143 229.226,89.9 229.225,89.9 "/>
				<polygon fill="none" stroke="#A6A6A6" stroke-width="0.5" stroke-linecap="square" stroke-miterlimit="3.8635" points="
					217.425,124.992 214.94,127.476 214.94,127.476 217.425,131.203 217.425,131.203 219.91,128.718 219.91,128.718 
					217.425,124.992 217.425,124.992 "/>
			</g>
		</g>
		<g class="city-names">
			<text x="125" y="371" class="name-EauClaire">Eau Claire</text>
			<text x="256" y="451" class="name-WisconsinRapids">Wisconsin Rapids</text>
			<text x="460" y="410" class="name-GreenBay">Green Bay</text>
			<!-- <text x="464" y="458" class="name-Sherwood">Sherwood</text> -->
			<text x="375" y="489" class="name-Oshkosh">Oshkosh</text>
			<text x="507" y="482" class="name-Manitowoc">Manitowoc</text>
			<text x="505" y="575" class="name-PortWashington">Port Washington</text>
			<text x="298" y="344" class="name-Wausau">Wausau</text>
			<text x="317" y="412" class="name-StevensPoint">Stevens Point</text>
			<text x="390" y="450" class="name-Appleton">Appleton</text>
			<text x="405" y="530" class="name-FondduLac">Fond du Lac</text>
			<text x="482" y="514" class="name-Sheboygan">Sheboygan</text>
			<text x="504" y="619" class="name-Milwaukee">Milwaukee</text>
			<text x="398" y="625" class="name-Waukesha">Waukesha</text>
			<text x="517" y="656" class="name-Racine">Racine</text>
			<text x="353" y="684" class="name-Beloit">Beloit</text>
			<text x="337" y="604" class="name-Madison">Madison</text>
			<text x="250" y="398" class="name-Marshfield">Marshfield</text>
			<text x="453" y="608" class="name-WestAllis">West Allis</text>
			<text x="461" y="642" class="name-Greenfield">Greenfield</text>
			<text x="511" y="679" class="name-Kenosha">Kenosha</text>
			<text x="332" y="663" class="name-Janesville">Janesville</text>
			<!-- <text x="271" y="525" class="name-Juneau">Juneau</text> -->
		</g>
		<g class="city-dots">
			<circle stroke-miterlimit="3.8635" cx="504.306" cy="674.554" r="4" class="dot-Kenosha"/>
			<circle stroke-miterlimit="3.8635" cx="509.811" cy="652.841" r="4" class="dot-Racine"/>
			<circle stroke-miterlimit="3.8635" cx="498.063" cy="616.813" r="4" class="dot-Milwaukee"/>
			<circle stroke-miterlimit="3.8635" cx="490.913" cy="626.281" r="4" class="dot-Greenfield"/>
			<circle stroke-miterlimit="3.8635" cx="496.517" cy="571.025" r="4" class="dot-PortWashington"/>
			<circle stroke-miterlimit="3.8635" cx="510.233" cy="523.690" r="4" class="dot-Sheboygan"/>
			<circle stroke-miterlimit="3.8635" cx="442.033" cy="514.996" r="4" class="dot-FondduLac"/>
			<!-- <circle stroke-miterlimit="3.8635" cx="459.807" cy="464.184" r="4" class="dot-Sherwood"/> -->
			<circle stroke-miterlimit="3.8635" cx="447.635" cy="449.308" r="4" class="dot-Appleton"/>
			<circle stroke-miterlimit="3.8635" cx="519.508" cy="468.435" r="4" class="dot-Manitowoc"/>
			<circle stroke-miterlimit="3.8635" cx="481.253" cy="418.203" r="4" class="dot-GreenBay"/>
			<circle stroke-miterlimit="3.8635" cx="323.021" cy="354.446" r="4" class="dot-Wausau"/>
			<circle stroke-miterlimit="3.8635" cx="151.238" cy="382.641" r="4" class="dot-EauClaire"/>
			<circle stroke-miterlimit="3.8635" cx="331.714" cy="418.782" r="4" class="dot-StevensPoint"/>
			<circle stroke-miterlimit="3.8635" cx="313.359" cy="436.556" r="4" class="dot-WisconsinRapids"/>
			<circle stroke-miterlimit="3.8635" cx="274.139" cy="404.871" r="4" class="dot-Marshfield"/>
			<circle stroke-miterlimit="3.8635" cx="431.214" cy="487.368" r="4" class="dot-Oshkosh"/>
			<circle stroke-miterlimit="3.8635" cx="488.401" cy="616.427" r="4" class="dot-WestAllis"/>
			<circle stroke-miterlimit="3.8635" cx="463.671" cy="617.201" r="4" class="dot-Waukesha"/>
			<circle stroke-miterlimit="3.8635" cx="391.992" cy="662.411" r="4" class="dot-Janesville"/>
			<circle stroke-miterlimit="3.8635" cx="392.185" cy="683.277" r="4" class="dot-Beloit"/>
			<circle stroke-miterlimit="3.8635" cx="362.239" cy="612.371" r="4" class="dot-Madison"/>
			<!-- <circle stroke-miterlimit="3.8635" cx="286.89" cy="510.36" r="4" class="dot-Juneau"/> -->
		</g>
	</g>
</svg>